<?xml version="1.0" encoding="utf-8"?>
<!-- Generator: Adobe Illustrator 19.2.1, SVG Export Plug-In . SVG Version: 6.00 Build 0)  -->
<svg version="1.1" id="layer" xmlns="http://www.w3.org/2000/svg" xmlns:xlink="http://www.w3.org/1999/xlink" x="0px" y="0px"
	 viewBox="0 0 652 652" style="enable-background:new 0 0 652 652;" xml:space="preserve">
<style type="text/css">
	.st0{fill:#62A5A1;}
</style>
<path class="st0" d="M43.4,286.1h38v4.4h-4.6c-1.3-0.1-2.6,0.3-3.7,1c-0.8,0.8-1.2,2-1.2,3.1v43c0.1,5.8-2.5,11.2-7.1,14.7
	c-4.7,3.8-11.2,5.8-19.3,5.8c-7.4,0-13.5-1.8-18.1-5.5c-4.7-3.7-7-7.9-7-12.7c-0.2-3.4,1.1-6.7,3.6-9.2c2.3-2.3,5.4-3.5,8.6-3.4
	c2.7-0.1,5.2,0.8,7.3,2.6c1.9,1.6,3,4,3,6.5c0.1,2.2-0.7,4.3-2.2,5.8c-1.3,1.4-3.2,2.2-5.2,2.2c-0.6,0-1.2,0-1.8-0.1
	c-0.8-0.2-1.5-0.3-2.3-0.3c-0.7-0.1-1.4,0.1-2,0.5c-0.4,0.5-0.6,1.1-0.6,1.7c0.1,2,1.3,3.9,3.1,4.8c3,1.8,6.4,2.7,9.9,2.6
	c3.7,0.2,7.3-1.2,10-3.8c2.4-2.5,3.6-6.2,3.6-11v-44.1c0.1-1.2-0.3-2.3-1.1-3.1c-1-0.8-2.2-1.1-3.4-1h-7.7"/>
<path class="st0" d="M258.7,352.3c-1.2,0.1-2.3-0.2-3.3-0.8c-0.7-0.6-1.1-1.5-1.1-2.4v-38l-21.8,0.9v4.3h2.2c1.5-0.1,3,0.4,4.3,1.3
	c1.1,1,1.6,2.4,1.5,3.8v26.6c0,5.4-14.6,5.5-14.6,0v-21.3c0-5.3-1.4-9.3-4.3-12.2c-3.2-3-7.4-4.5-11.7-4.3c-3.6,0-7.1,0.9-10.3,2.5
	c-3.8,2.1-7.2,5-9.9,8.5c-1-3.3-2.9-6.1-5.7-8.2c-2.9-1.9-6.3-2.8-9.7-2.7c-3.5,0-7,0.7-10.2,2.3c-3.7,2.1-7,4.8-9.7,8.2
	c-0.2-3.3-0.7-6.7-1.5-9.9l-20.3,1v4.3c1.7-0.1,3.3,0,4.9,0.4c1,0.3,1.8,0.9,2.4,1.7c0.5,0.9,0.8,1.9,0.8,2.9v25.8
	c0,6.3-15.9,7.4-15.9-0.1v-21.9c0.1-3-0.7-6-2.4-8.5c-1.5-2.2-3.7-3.9-6.2-4.8c-4.4-1.5-8.9-2.3-13.5-2.2c-6-0.2-11.9,1.3-17.1,4.4
	c-3.7,2.4-5.5,5.1-5.5,8.2c0,1.8,0.7,3.5,2.1,4.6c1.6,1.2,3.6,1.8,5.6,1.7c1.9,0.1,3.7-0.5,5.2-1.7c1.3-1.1,2-2.7,1.9-4.3
	c0-1.5-0.6-3-1.5-4.3c-0.4-0.4-0.6-0.9-0.7-1.4c0-0.6,0.6-1.2,1.8-1.8c2-1,4.1-1.4,6.3-1.4c2.7-0.1,5.3,0.7,7.4,2.4
	c1.9,1.6,2.9,4,2.7,6.4v6.4c-13.9,2.3-22.8,4.6-26.9,6.9c-5.1,2.9-7.6,6.8-7.6,11.6c0,3.2,1.5,6.1,4.2,7.9c3.4,2.3,7.5,3.3,11.5,3.1
	c3.3,0.1,6.5-0.5,9.6-1.7c3.5-1.6,6.8-3.9,9.6-6.6c0.8,1.7,3.4,8.7,12.1,8.7c3.1,0,6.2-0.6,9-1.9h30.3v-4.5h-2.9
	c-1.4,0.1-2.8-0.3-4-1.2c-0.8-1-1.2-2.3-1-3.6v-17.6c0.1-2,0.8-4,1.9-5.7c1.1-1.9,2.7-3.5,4.6-4.6c1.8-1,3.8-1.5,5.8-1.5
	c2.5-0.1,4.9,0.9,6.7,2.7c1.8,2.1,2.8,4.8,2.6,7.5v20.1c0.1,1.1-0.4,2.2-1.2,3c-1.1,0.7-2.4,0.9-3.7,0.8h-3.4v4.4h30.2v-4.4H195
	c-1.3,0.1-2.6-0.4-3.7-1.2c-0.7-0.8-1.1-1.9-1-3v-16.9c0.1-2.4,0.8-4.7,2-6.8c1.8-4.1,6-6.6,10.5-6.3c2.5-0.1,5,0.8,6.8,2.6
	c1.8,2.3,2.7,5.1,2.4,8v19.6c0.1,1.1-0.3,2.3-1.1,3.1c-1.1,0.8-2.5,1.1-3.9,1h-3v4.4h58v-4.5 M111,339.1c0.2,3.4-1,6.8-3.4,9.3
	c-2.3,2.3-5.4,3.5-8.6,3.4c-1.9,0.1-3.8-0.5-5.2-1.8c-1.3-1.4-2-3.2-1.8-5.1c0-3.1,1.5-5.9,4-7.6c2.6-1.9,7.7-3.4,15.3-4.3
	L111,339.1z"/>
<path class="st0" d="M246.8,306.9c2.2,0,4.4-0.8,6-2.3c1.6-1.4,2.6-3.4,2.5-5.5c0-2.1-0.9-4.2-2.5-5.6c-3.5-3-8.7-3-12.1,0
	c-3,2.7-3.3,7.3-0.7,10.3c0.2,0.2,0.4,0.5,0.7,0.7C242.4,306.1,244.5,306.9,246.8,306.9"/>
<path class="st0" d="M311.5,335.3h-34.4c0.1,6.3,1.5,10.9,4.2,13.9c2.6,2.9,6.4,4.6,10.3,4.5c3,0,5.9-0.8,8.5-2.3
	c3.3-2.2,6.1-5,8.3-8.3l3.8,2.2c-2.4,4.2-5.9,7.7-10.2,10.2c-4.3,2.2-9.2,3.3-14,3.1c-8,0-14.5-2.2-19.5-6.7
	c-4.9-4.3-7.6-10.6-7.5-17.1c-0.1-6.6,2.7-12.9,7.5-17.4c5-4.7,11.6-7.2,18.4-7c4.5-0.1,8.9,0.8,13,2.8c3.6,1.8,6.5,4.7,8.5,8.2
	C310.6,325.6,311.7,330.5,311.5,335.3 M277.2,331h16.4c1.2,0.1,2.4-0.3,3.3-1.1c0.8-1.1,1.1-2.5,1-3.8c0.2-3.1-0.8-6.2-2.8-8.6
	c-1.8-2-4.4-3.1-7.1-3.1c-3.1-0.1-6.1,1.5-7.7,4.1C278.4,321.3,277.4,325.4,277.2,331L277.2,331z"/>
<path class="st0" d="M453.5,291c2.2,0,4.4,0.8,6,2.3c3,2.7,3.4,7.3,0.7,10.3c-0.2,0.2-0.5,0.5-0.7,0.7c-1.6,1.5-3.8,2.3-6,2.3
	c-2.3,0-4.4-0.8-6.1-2.3c-3-2.7-3.3-7.4-0.6-10.4c0.2-0.2,0.4-0.4,0.6-0.6C449.1,291.7,451.3,290.9,453.5,291"/>
<path class="st0" d="M465.2,311.2h29v4.2h-2.4c-1.3-0.1-2.7,0.1-3.9,0.7c-0.7,0.4-1.1,1.1-1,1.9c0.1,1.1,0.5,2.2,1.1,3.2l12.4,20.9
	l10.7-19.6c0.5-0.9,0.8-1.9,0.8-2.9c0-2.7-2.5-4.1-7.3-4.2v-4.2h21.1v4.2c-1.6,0.1-3.1,0.5-4.4,1.3c-1.2,0.8-2.2,1.9-2.8,3.2
	l-20.2,37h-3.7l-22.4-37.4c-0.7-1.3-1.6-2.4-2.6-3.3c-0.9-0.5-2-0.8-3.1-0.8h-1.5"/>
<path class="st0" d="M572.1,334.7h-34.4c0.1,6.3,1.5,10.9,4.2,13.9c2.6,3,6.4,4.6,10.3,4.5c3,0,5.9-0.8,8.5-2.3
	c3.3-2.2,6.1-5,8.3-8.3l3.8,2.2c-2.4,4.2-5.9,7.7-10.2,10.2c-4.3,2.2-9.1,3.3-14,3.2c-8,0-14.5-2.2-19.5-6.7
	c-4.9-4.3-7.6-10.6-7.5-17.2c-0.1-6.6,2.6-13,7.5-17.5c5-4.7,11.6-7.2,18.4-7c4.5-0.1,8.9,0.8,13,2.8c3.6,1.8,6.5,4.7,8.5,8.2
	C571.2,325,572.3,329.8,572.1,334.7 M537.8,330.4h16.4c1.2,0.1,2.5-0.3,3.4-1.1c0.8-1.1,1.1-2.5,1-3.8c0.2-3.1-0.8-6.2-2.8-8.6
	c-1.8-2-4.4-3.2-7.2-3.1c-3.1-0.1-6.1,1.4-7.7,4.1C539,320.6,538,324.8,537.8,330.4L537.8,330.4z"/>
<path class="st0" d="M606.2,352.3v4.4h-33.9v-4.4h3.9c1.4,0.1,2.7-0.2,3.8-0.9c0.8-0.6,1.2-1.5,1.2-2.5v-26.5
	c0.1-1.7-0.5-3.4-1.7-4.7c-1.2-1.1-2.9-1.6-4.5-1.5h-2.8V312l21-1v14.6c0.9-4.3,3.2-8.2,6.4-11.2c2.8-2.5,6.5-3.9,10.3-3.9
	c2.8-0.2,5.5,0.7,7.7,2.4c1.9,1.5,2.9,3.7,2.8,6.1c0,1.9-0.7,3.7-2,5.1c-1.3,1.3-3,2-4.8,2c-1.6,0-3.2-0.6-4.3-1.7
	c-1.1-1.2-1.8-2.7-1.7-4.4c0-1.1,0.3-2.2,0.9-3.1c0.2-0.4,0.4-0.8,0.5-1.3c0-0.4-0.1-0.7-0.4-1c-0.3-0.2-0.7-0.3-1.1-0.3
	c-1.6,0.1-3,0.9-4.1,2c-2.7,2.7-4.8,6-5.9,9.7c-1.5,4.3-2.3,8.8-2.3,13.3v9.7c-0.1,1,0.3,1.9,1,2.5c0.8,0.6,1.8,1,2.8,0.9"/>
<path class="st0" d="M409.4,356.8v-4.4h3.4c1.2,0.1,2.5-0.3,3.4-1.1c0.8-0.9,1.2-2.2,1.1-3.4v-47.4c-0.2-2.8-2.6-5-5.5-4.8h-3.4
	v-4.2c8.2,0,16.4-0.3,20.9-5.1l1.7-0.2v62.1c0,2.4,2.9,3.7,6.2,4c0.9,0,3.2,0,4.2,0c3.4-0.3,6.3-1.7,6.3-4.1v-26.7
	c0.1-1.4-0.5-2.8-1.6-3.8c-1.2-1-2.7-1.4-4.3-1.3h-2.2v-4.4l21.8-0.9v38c0,0.9,0.4,1.8,1.1,2.4c1,0.6,2.1,0.9,3.3,0.8h3.4v4.4"/>
<path class="st0" d="M372.3,284.4c6.8-0.1,13.4,1.6,19.3,4.8c5.8,3,10.6,7.6,13.9,13.1c3.3,5.7,5.1,12.2,5,18.7
	c0.3,10-3.7,19.6-11,26.5c-7.3,7-17,10.8-27.1,10.6c-6.8,0.1-13.4-1.5-19.4-4.8c-5.6-3.1-10.3-7.6-13.6-13
	c-3.4-5.9-5.1-12.5-4.9-19.3c-0.3-9.9,3.7-19.5,10.8-26.3C352.6,287.9,362.3,284.1,372.3,284.4 M372.5,288.9
	c-3.7-0.1-7.4,1-10.4,3.1c-3.3,2.6-5.7,6.1-7,10.1c-2,6.1-2.8,12.5-2.6,18.9c0,8.5,0.8,15.1,2.4,19.5c1.2,3.9,3.7,7.3,7,9.7
	c3.2,2.1,6.9,3.2,10.7,3.1c5.7,0.2,11.2-2.6,14.4-7.3c3.6-4.9,5.4-12.9,5.4-25c0-8.5-0.8-15.3-2.3-19.5c-1.2-3.8-3.6-7.1-6.9-9.5
	C380,290,376.3,288.9,372.5,288.9L372.5,288.9z"/>
</svg>
